<svg xmlns="http://www.w3.org/2000/svg" xmlns:xlink="http://www.w3.org/1999/xlink" width="500" zoomAndPan="magnify" viewBox="0 0 375 374.999991" height="500" preserveAspectRatio="xMidYMid meet" version="1.0"><defs><filter x="0%" y="0%" width="100%" height="100%" id="59e70ab845"><feColorMatrix values="0 0 0 0 1 0 0 0 0 1 0 0 0 0 1 0 0 0 1 0" color-interpolation-filters="sRGB"/></filter><g/><mask id="74ce795307"><g filter="url(#59e70ab845)"><rect x="-37.5" width="450" fill="#000000" y="-37.499999" height="449.999989" fill-opacity="0.4784"/></g></mask><clipPath id="0ec06ca743"><rect x="0" width="192" y="0" height="224"/></clipPath><mask id="adfe2689ee"><g filter="url(#59e70ab845)"><rect x="-37.5" width="450" fill="#000000" y="-37.499999" height="449.999989" fill-opacity="0.4784"/></g></mask><clipPath id="b10c187754"><path d="M 1 0.839844 L 20 0.839844 L 20 20 L 1 20 Z M 1 0.839844 " clip-rule="nonzero"/></clipPath><clipPath id="ab3645219c"><path d="M 150 0.839844 L 173 0.839844 L 173 20 L 150 20 Z M 150 0.839844 " clip-rule="nonzero"/></clipPath><clipPath id="70d316e0c1"><path d="M 180 0.839844 L 204 0.839844 L 204 20 L 180 20 Z M 180 0.839844 " clip-rule="nonzero"/></clipPath><clipPath id="7171c7a9da"><rect x="0" width="289" y="0" height="26"/></clipPath></defs><g mask="url(#74ce795307)"><g transform="matrix(1, 0, 0, 1, 91, 66)"><g clip-path="url(#0ec06ca743)"><g fill="#ff004f" fill-opacity="1"><g transform="translate(1.550437, 168.384221)"><g><path d="M 1.296875 0 L 1.296875 -1.625 L 5.359375 -3.078125 C 7.515625 -3.941406 9.1875 -4.992188 10.375 -6.234375 C 11.5625 -7.484375 12.535156 -9.242188 13.296875 -11.515625 L 46.703125 -107.359375 L 60.484375 -107.359375 L 93.40625 -10.859375 C 94.269531 -8.484375 95.242188 -6.671875 96.328125 -5.421875 C 97.410156 -4.179688 99.085938 -3.128906 101.359375 -2.265625 L 103.296875 -1.625 L 103.296875 0 L 62.109375 0 L 62.109375 -1.625 L 64.546875 -2.4375 C 66.816406 -3.300781 68.191406 -4.515625 68.671875 -6.078125 C 69.160156 -7.648438 69.082031 -9.515625 68.4375 -11.671875 L 60.8125 -35.03125 L 24.8125 -35.03125 L 17.03125 -12.15625 C 16.269531 -9.78125 16.023438 -7.890625 16.296875 -6.484375 C 16.566406 -5.078125 17.835938 -3.941406 20.109375 -3.078125 L 23.671875 -1.625 L 23.671875 0 Z M 25.953125 -38.265625 L 59.84375 -38.265625 L 43.46875 -88.703125 Z M 25.953125 -38.265625 "/></g></g></g><g fill="#ff004f" fill-opacity="1"><g transform="translate(106.95705, 168.384221)"><g><path d="M 38.4375 2.921875 C 32.488281 2.921875 26.429688 2.191406 20.265625 0.734375 C 14.109375 -0.722656 8.972656 -2.644531 4.859375 -5.03125 L 5.671875 -27.078125 L 7.296875 -27.078125 L 12.328125 -16.546875 C 13.835938 -13.515625 15.457031 -10.835938 17.1875 -8.515625 C 18.914062 -6.191406 21.296875 -4.378906 24.328125 -3.078125 C 26.484375 -1.992188 28.5625 -1.265625 30.5625 -0.890625 C 32.5625 -0.515625 34.804688 -0.328125 37.296875 -0.328125 C 43.890625 -0.328125 49.101562 -2.109375 52.9375 -5.671875 C 56.78125 -9.242188 58.703125 -13.835938 58.703125 -19.453125 C 58.703125 -24.753906 57.40625 -28.890625 54.8125 -31.859375 C 52.21875 -34.835938 48.054688 -37.734375 42.328125 -40.546875 L 35.671875 -43.46875 C 26.378906 -47.570312 19.109375 -52.296875 13.859375 -57.640625 C 8.617188 -62.992188 6 -70.109375 6 -78.984375 C 6 -85.359375 7.644531 -90.867188 10.9375 -95.515625 C 14.238281 -100.171875 18.832031 -103.738281 24.71875 -106.21875 C 30.613281 -108.707031 37.507812 -109.953125 45.40625 -109.953125 C 51.132812 -109.953125 56.566406 -109.191406 61.703125 -107.671875 C 66.835938 -106.160156 71.296875 -104.109375 75.078125 -101.515625 L 74.109375 -82.0625 L 72.484375 -82.0625 L 65.84375 -94.21875 C 64 -98 62.160156 -100.671875 60.328125 -102.234375 C 58.492188 -103.804688 56.382812 -104.921875 54 -105.578125 C 52.59375 -106.003906 51.296875 -106.296875 50.109375 -106.453125 C 48.921875 -106.617188 47.40625 -106.703125 45.5625 -106.703125 C 40.050781 -106.703125 35.40625 -105.109375 31.625 -101.921875 C 27.84375 -98.734375 25.953125 -94.4375 25.953125 -89.03125 C 25.953125 -83.519531 27.410156 -79.113281 30.328125 -75.8125 C 33.242188 -72.519531 37.515625 -69.578125 43.140625 -66.984375 L 50.59375 -63.734375 C 60.976562 -59.191406 68.4375 -54.351562 72.96875 -49.21875 C 77.507812 -44.082031 79.78125 -37.460938 79.78125 -29.359375 C 79.78125 -19.835938 76.1875 -12.078125 69 -6.078125 C 61.8125 -0.078125 51.625 2.921875 38.4375 2.921875 Z M 38.4375 2.921875 "/></g></g></g></g></g></g><g fill="#ffffff" fill-opacity="1"><g transform="translate(69.902658, 223.019121)"><g><path d="M 104.078125 -17.59375 C 101.628906 -17.882812 99.160156 -18.03125 96.671875 -18.03125 C 95.578125 -18.0625 94.46875 -18.09375 93.34375 -18.125 C 83.050781 -18.539062 72.738281 -18.648438 62.40625 -18.453125 C 61.894531 -18.453125 61.472656 -18.453125 61.140625 -18.453125 C 60.578125 -18.484375 60.164062 -18.476562 59.90625 -18.4375 C 59.644531 -18.394531 59.4375 -18.253906 59.28125 -18.015625 C 59.132812 -17.773438 58.957031 -17.382812 58.75 -16.84375 C 58.613281 -16.539062 58.445312 -16.15625 58.25 -15.6875 C 56.53125 -11.945312 54.953125 -8.132812 53.515625 -4.25 C 52.578125 -1.75 51.851562 0.816406 51.34375 3.453125 C 51.144531 4.265625 51.070312 5.0625 51.125 5.84375 C 51.1875 6.625 51.539062 7.320312 52.1875 7.9375 C 52.269531 8 52.300781 8.078125 52.28125 8.171875 C 52.257812 8.265625 52.203125 8.351562 52.109375 8.4375 C 52.015625 8.519531 51.914062 8.578125 51.8125 8.609375 C 50.289062 8.835938 49.375 8.289062 49.0625 6.96875 C 48.882812 6.226562 48.851562 5.460938 48.96875 4.671875 C 48.96875 4.609375 48.96875 4.566406 48.96875 4.546875 C 49.082031 3.191406 49.320312 1.847656 49.6875 0.515625 C 50.050781 -0.804688 50.460938 -2.132812 50.921875 -3.46875 C 52.367188 -7.46875 53.960938 -11.421875 55.703125 -15.328125 C 55.796875 -15.492188 55.867188 -15.660156 55.921875 -15.828125 C 56.015625 -16.023438 56.109375 -16.222656 56.203125 -16.421875 C 56.347656 -16.703125 56.476562 -16.984375 56.59375 -17.265625 C 56.707031 -17.554688 56.753906 -17.851562 56.734375 -18.15625 C 56.585938 -18.269531 56.441406 -18.335938 56.296875 -18.359375 C 56.160156 -18.390625 56.019531 -18.394531 55.875 -18.375 C 55.851562 -18.375 55.820312 -18.375 55.78125 -18.375 C 54.570312 -18.375 53.359375 -18.359375 52.140625 -18.328125 C 51.804688 -18.328125 51.457031 -18.328125 51.09375 -18.328125 C 50.632812 -18.304688 50.25 -18.164062 49.9375 -17.90625 C 49.632812 -17.65625 49.34375 -17.34375 49.0625 -16.96875 C 48.6875 -16.488281 48.316406 -16.015625 47.953125 -15.546875 C 46.367188 -13.523438 44.773438 -11.523438 43.171875 -9.546875 C 40.796875 -6.671875 38.3125 -3.898438 35.71875 -1.234375 C 33.132812 1.429688 30.394531 3.9375 27.5 6.28125 C 23.851562 9.28125 19.984375 11.925781 15.890625 14.21875 C 9.617188 17.570312 3.050781 19.160156 -3.8125 18.984375 C -10.28125 18.847656 -16.113281 17.101562 -21.3125 13.75 C -22.78125 12.8125 -24.078125 11.679688 -25.203125 10.359375 C -25.960938 9.421875 -26.5625 8.410156 -27 7.328125 C -27.445312 6.242188 -27.671875 5.066406 -27.671875 3.796875 C -27.609375 2.265625 -27.257812 0.847656 -26.625 -0.453125 C -25.988281 -1.753906 -25.101562 -2.9375 -23.96875 -4 C -22.414062 -5.507812 -20.710938 -6.78125 -18.859375 -7.8125 C -17.046875 -8.863281 -15.175781 -9.785156 -13.25 -10.578125 C -11.332031 -11.367188 -9.398438 -12.070312 -7.453125 -12.6875 C -4.296875 -13.707031 -1.109375 -14.5625 2.109375 -15.25 C 5.335938 -15.945312 8.578125 -16.535156 11.828125 -17.015625 C 19.523438 -18.085938 27.242188 -18.796875 34.984375 -19.140625 C 38.941406 -19.378906 42.882812 -19.5 46.8125 -19.5 C 47.894531 -19.476562 48.726562 -19.9375 49.3125 -20.875 C 50.351562 -22.332031 51.398438 -23.800781 52.453125 -25.28125 C 54.085938 -27.539062 55.691406 -29.835938 57.265625 -32.171875 C 64.609375 -43.140625 71.644531 -54.285156 78.375 -65.609375 C 78.9375 -66.566406 79.488281 -67.539062 80.03125 -68.53125 C 80.289062 -69.03125 80.5625 -69.539062 80.84375 -70.0625 C 81.175781 -70.707031 81.707031 -71.070312 82.4375 -71.15625 C 82.832031 -71.15625 83.125 -71.039062 83.3125 -70.8125 C 83.5 -70.59375 83.519531 -70.296875 83.375 -69.921875 C 83.238281 -69.609375 83.082031 -69.3125 82.90625 -69.03125 C 81.8125 -67.082031 80.835938 -65.109375 79.984375 -63.109375 C 79.671875 -62.398438 79.359375 -61.707031 79.046875 -61.03125 C 76.078125 -54.59375 73.097656 -48.148438 70.109375 -41.703125 C 67.828125 -36.734375 65.523438 -31.753906 63.203125 -26.765625 C 62.535156 -25.285156 61.875 -23.816406 61.21875 -22.359375 C 61.070312 -22.046875 60.929688 -21.75 60.796875 -21.46875 C 60.765625 -21.40625 60.738281 -21.335938 60.71875 -21.265625 C 60.625 -21.054688 60.546875 -20.851562 60.484375 -20.65625 C 60.429688 -20.457031 60.453125 -20.257812 60.546875 -20.0625 C 60.734375 -19.925781 60.957031 -19.847656 61.21875 -19.828125 C 61.476562 -19.816406 61.710938 -19.8125 61.921875 -19.8125 C 62.109375 -19.84375 62.269531 -19.859375 62.40625 -19.859375 C 63.476562 -19.828125 64.550781 -19.828125 65.625 -19.859375 C 67.09375 -19.859375 68.5625 -19.84375 70.03125 -19.8125 C 78.039062 -19.675781 86.0625 -19.503906 94.09375 -19.296875 C 96.71875 -19.242188 99.328125 -19.132812 101.921875 -18.96875 C 102.148438 -18.9375 102.394531 -18.921875 102.65625 -18.921875 C 102.800781 -18.921875 102.957031 -18.921875 103.125 -18.921875 C 103.457031 -18.921875 103.78125 -18.890625 104.09375 -18.828125 C 104.40625 -18.773438 104.703125 -18.664062 104.984375 -18.5 C 105.035156 -18.46875 105.070312 -18.410156 105.09375 -18.328125 C 105.125 -18.242188 105.128906 -18.175781 105.109375 -18.125 C 105.109375 -18.03125 105.070312 -17.945312 105 -17.875 C 104.925781 -17.8125 104.863281 -17.765625 104.8125 -17.734375 C 104.582031 -17.640625 104.335938 -17.59375 104.078125 -17.59375 Z M 46.671875 -17.390625 C 46.765625 -17.566406 46.773438 -17.722656 46.703125 -17.859375 C 46.628906 -18.003906 46.507812 -18.078125 46.34375 -18.078125 C 46.09375 -18.109375 45.828125 -18.109375 45.546875 -18.078125 C 45.398438 -18.078125 45.257812 -18.078125 45.125 -18.078125 C 35.425781 -17.960938 25.722656 -17.296875 16.015625 -16.078125 C 12.304688 -15.628906 8.613281 -15.035156 4.9375 -14.296875 C 1.269531 -13.566406 -2.363281 -12.648438 -5.96875 -11.546875 C -7.894531 -10.960938 -9.796875 -10.285156 -11.671875 -9.515625 C -13.546875 -8.753906 -15.375 -7.847656 -17.15625 -6.796875 C -19.019531 -5.753906 -20.710938 -4.484375 -22.234375 -2.984375 C -24.023438 -1.148438 -25.03125 0.800781 -25.25 2.875 C -25.476562 4.945312 -24.925781 6.945312 -23.59375 8.875 C -22.601562 10.226562 -21.421875 11.382812 -20.046875 12.34375 C -15.035156 15.894531 -9.070312 17.707031 -2.15625 17.78125 C -0.382812 17.78125 1.648438 17.546875 3.953125 17.078125 C 6.234375 16.609375 8.4375 15.910156 10.5625 14.984375 C 12.695312 14.066406 14.765625 12.988281 16.765625 11.75 C 21.710938 8.707031 26.289062 5.160156 30.5 1.109375 C 33.414062 -1.617188 36.160156 -4.492188 38.734375 -7.515625 C 41.316406 -10.535156 43.820312 -13.613281 46.25 -16.75 C 46.394531 -16.976562 46.535156 -17.191406 46.671875 -17.390625 Z M 58.46875 -21.375 C 60.320312 -25.613281 62.238281 -29.835938 64.21875 -34.046875 C 64.3125 -34.273438 64.609375 -34.9375 65.109375 -36.03125 C 65.617188 -37.132812 66.203125 -38.414062 66.859375 -39.875 C 67.523438 -41.332031 68.132812 -42.707031 68.6875 -44 C 69.238281 -45.300781 69.625 -46.273438 69.84375 -46.921875 C 70.070312 -47.566406 70.007812 -47.628906 69.65625 -47.109375 C 69.5625 -46.984375 69.488281 -46.863281 69.4375 -46.75 C 69.132812 -46.300781 68.835938 -45.851562 68.546875 -45.40625 C 66.203125 -41.757812 63.84375 -38.117188 61.46875 -34.484375 C 59.09375 -30.847656 56.632812 -27.269531 54.09375 -23.75 C 53.84375 -23.414062 53.59375 -23.0625 53.34375 -22.6875 C 52.851562 -22.019531 52.367188 -21.34375 51.890625 -20.65625 C 51.703125 -20.375 51.648438 -20.140625 51.734375 -19.953125 C 51.816406 -19.773438 52.007812 -19.6875 52.3125 -19.6875 C 52.832031 -19.6875 53.34375 -19.695312 53.84375 -19.71875 C 54.632812 -19.78125 55.421875 -19.8125 56.203125 -19.8125 C 56.804688 -19.789062 57.273438 -19.921875 57.609375 -20.203125 C 57.941406 -20.484375 58.226562 -20.875 58.46875 -21.375 Z M 58.46875 -21.375 "/></g></g></g><g fill="#ffffff" fill-opacity="1"><g transform="translate(136.855374, 223.019121)"><g><path d="M 15.25 -9.609375 C 15.457031 -9.347656 15.203125 -8.878906 14.484375 -8.203125 C 13.765625 -7.523438 13 -6.953125 12.1875 -6.484375 C 11.375 -6.023438 10.4375 -5.566406 9.375 -5.109375 C 8.664062 -4.796875 7.914062 -4.691406 7.125 -4.796875 C 6.332031 -4.898438 5.9375 -5.378906 5.9375 -6.234375 C 5.9375 -7.097656 6.132812 -7.953125 6.53125 -8.796875 C 6.925781 -9.671875 7.007812 -10.117188 6.78125 -10.140625 C 6.5625 -10.171875 6.097656 -9.960938 5.390625 -9.515625 C 3.554688 -8.304688 1.847656 -6.925781 0.265625 -5.375 C -0.148438 -4.863281 -0.6875 -4.582031 -1.34375 -4.53125 C -1.675781 -4.53125 -1.9375 -4.632812 -2.125 -4.84375 C -2.3125 -5.050781 -2.332031 -5.28125 -2.1875 -5.53125 C -1.0625 -7.625 0.078125 -9.691406 1.234375 -11.734375 C 1.492188 -12.148438 1.878906 -12.410156 2.390625 -12.515625 C 2.609375 -12.554688 2.8125 -12.488281 3 -12.3125 C 3.1875 -12.132812 3.28125 -11.941406 3.28125 -11.734375 C 3.25 -11.523438 3.160156 -11.28125 3.015625 -11 C 2.953125 -10.832031 2.890625 -10.671875 2.828125 -10.515625 C 2.773438 -10.359375 2.757812 -10.226562 2.78125 -10.125 C 2.800781 -10.019531 2.878906 -9.988281 3.015625 -10.03125 C 3.210938 -10.132812 3.40625 -10.242188 3.59375 -10.359375 C 4.082031 -10.640625 4.550781 -10.910156 5 -11.171875 C 5.40625 -11.398438 5.820312 -11.601562 6.25 -11.78125 C 6.6875 -11.957031 7.144531 -12.082031 7.625 -12.15625 C 8.394531 -12.207031 8.941406 -12.03125 9.265625 -11.625 C 9.585938 -11.226562 9.625 -10.675781 9.375 -9.96875 C 9.125 -9.332031 8.851562 -8.695312 8.5625 -8.0625 C 8.21875 -7.476562 8.160156 -7.03125 8.390625 -6.71875 C 8.628906 -6.414062 9.703125 -6.769531 11.609375 -7.78125 L 13.0625 -8.625 C 14.414062 -9.5 15.144531 -9.828125 15.25 -9.609375 Z M 15.25 -9.609375 "/></g></g></g><g fill="#ffffff" fill-opacity="1"><g transform="translate(156.884433, 223.019121)"><g><path d="M 14.921875 -9.828125 C 15.023438 -9.679688 15.050781 -9.535156 15 -9.390625 C 14.945312 -9.253906 14.851562 -9.128906 14.71875 -9.015625 C 13.832031 -8.210938 12.84375 -7.578125 11.75 -7.109375 C 9.875 -6.234375 7.910156 -5.691406 5.859375 -5.484375 C 4.234375 -5.316406 2.691406 -5.5625 1.234375 -6.21875 C 0.691406 -6.457031 0.289062 -6.328125 0.03125 -5.828125 C -0.320312 -5.128906 -0.695312 -4.425781 -1.09375 -3.71875 C -1.289062 -3.320312 -1.503906 -2.910156 -1.734375 -2.484375 C -1.753906 -2.429688 -1.78125 -2.375 -1.8125 -2.3125 C -1.894531 -2.164062 -1.976562 -2.03125 -2.0625 -1.90625 C -2.144531 -1.78125 -2.289062 -1.691406 -2.5 -1.640625 C -2.601562 -1.609375 -2.710938 -1.59375 -2.828125 -1.59375 C -2.941406 -1.59375 -3.046875 -1.617188 -3.140625 -1.671875 C -3.210938 -1.734375 -3.273438 -1.816406 -3.328125 -1.921875 C -3.390625 -2.035156 -3.421875 -2.148438 -3.421875 -2.265625 C -3.335938 -2.640625 -3.210938 -3.007812 -3.046875 -3.375 C -2.679688 -4.195312 -2.328125 -5.003906 -1.984375 -5.796875 C -1.109375 -7.828125 -0.191406 -9.828125 0.765625 -11.796875 C 3.421875 -17.253906 5.953125 -22.765625 8.359375 -28.328125 C 8.546875 -28.867188 8.804688 -29.347656 9.140625 -29.765625 C 9.398438 -30.078125 9.753906 -30.160156 10.203125 -30.015625 C 10.671875 -29.828125 10.8125 -29.5 10.625 -29.03125 C 10.320312 -28.082031 9.988281 -27.128906 9.625 -26.171875 C 7.84375 -21.765625 5.894531 -17.441406 3.78125 -13.203125 C 3.320312 -12.296875 3.15625 -11.722656 3.28125 -11.484375 C 3.414062 -11.242188 3.71875 -11.222656 4.1875 -11.421875 C 4.664062 -11.628906 5.222656 -11.898438 5.859375 -12.234375 C 6.304688 -12.484375 6.753906 -12.707031 7.203125 -12.90625 C 7.296875 -12.96875 7.378906 -13.007812 7.453125 -13.03125 C 7.992188 -13.34375 8.578125 -13.507812 9.203125 -13.53125 C 9.453125 -13.53125 9.632812 -13.421875 9.75 -13.203125 C 9.8125 -13.066406 9.8125 -12.945312 9.75 -12.84375 C 9.695312 -12.738281 9.625 -12.660156 9.53125 -12.609375 C 8.570312 -12.046875 7.597656 -11.507812 6.609375 -11 C 6.128906 -10.78125 5.632812 -10.539062 5.125 -10.28125 C 4.625 -10.050781 4.128906 -9.804688 3.640625 -9.546875 C 3.304688 -9.359375 3 -9.132812 2.71875 -8.875 C 2.0625 -8.195312 2.128906 -7.632812 2.921875 -7.1875 C 3.578125 -6.90625 4.234375 -6.753906 4.890625 -6.734375 C 5.554688 -6.722656 6.21875 -6.800781 6.875 -6.96875 C 8.90625 -7.414062 10.8125 -8.15625 12.59375 -9.1875 C 12.738281 -9.257812 12.878906 -9.328125 13.015625 -9.390625 C 13.347656 -9.609375 13.703125 -9.800781 14.078125 -9.96875 C 14.210938 -10.039062 14.363281 -10.066406 14.53125 -10.046875 C 14.707031 -10.035156 14.835938 -9.960938 14.921875 -9.828125 Z M 14.921875 -9.828125 "/></g></g></g><g fill="#ffffff" fill-opacity="1"><g transform="translate(176.355101, 223.019121)"><g><path d="M 7.65625 -8.109375 C 6.96875 -7.296875 6.15625 -6.550781 5.21875 -5.875 C 4.28125 -5.195312 3.21875 -4.738281 2.03125 -4.5 C 0.851562 -4.257812 -0.0546875 -4.34375 -0.703125 -4.75 C -1.359375 -5.164062 -1.488281 -6.078125 -1.09375 -7.484375 C -0.582031 -8.953125 0.117188 -10.347656 1.015625 -11.671875 C 1.222656 -11.953125 1.519531 -12.148438 1.90625 -12.265625 C 2.1875 -12.328125 2.429688 -12.273438 2.640625 -12.109375 C 2.859375 -11.953125 2.941406 -11.753906 2.890625 -11.515625 C 2.691406 -11.054688 2.476562 -10.59375 2.25 -10.125 C 2.019531 -9.664062 1.867188 -9.363281 1.796875 -9.21875 C 1.335938 -8.394531 1.019531 -7.535156 0.84375 -6.640625 C 0.84375 -6.128906 1.53125 -6.097656 2.90625 -6.546875 C 4.28125 -6.992188 5.613281 -7.816406 6.90625 -9.015625 C 8.207031 -10.222656 8.828125 -10.578125 8.765625 -10.078125 C 8.710938 -9.585938 8.34375 -8.929688 7.65625 -8.109375 Z M 4.296875 -14.5625 C 4.234375 -14.507812 4.097656 -14.445312 3.890625 -14.375 C 3.691406 -14.300781 3.476562 -14.25 3.25 -14.21875 C 3.03125 -14.1875 2.859375 -14.222656 2.734375 -14.328125 C 2.609375 -14.429688 2.601562 -14.632812 2.71875 -14.9375 C 2.914062 -15.476562 3.128906 -15.953125 3.359375 -16.359375 C 3.585938 -16.765625 3.878906 -17.210938 4.234375 -17.703125 C 4.460938 -17.921875 4.710938 -18.035156 4.984375 -18.046875 C 5.253906 -18.066406 5.476562 -17.992188 5.65625 -17.828125 C 5.84375 -17.671875 5.894531 -17.453125 5.8125 -17.171875 C 5.53125 -16.160156 5.023438 -15.289062 4.296875 -14.5625 Z M 4.296875 -14.5625 "/></g></g></g><g fill="#ffffff" fill-opacity="1"><g transform="translate(189.779797, 223.019121)"><g><path d="M 12.03125 -9.296875 C 10.3125 -7.273438 8.625 -5.78125 6.96875 -4.8125 C 5.320312 -3.851562 3.554688 -3.535156 1.671875 -3.859375 C -0.203125 -4.191406 -0.972656 -5.453125 -0.640625 -7.640625 C -0.398438 -8.742188 -0.0820312 -9.820312 0.3125 -10.875 C 1.300781 -13.332031 2.300781 -15.773438 3.3125 -18.203125 C 3.644531 -19.066406 4 -19.941406 4.375 -20.828125 C 4.457031 -21.023438 4.539062 -21.21875 4.625 -21.40625 C 4.757812 -21.726562 4.898438 -22.054688 5.046875 -22.390625 C 5.253906 -22.960938 5.03125 -23.257812 4.375 -23.28125 C 4 -23.28125 3.632812 -23.28125 3.28125 -23.28125 C 3.101562 -23.28125 2.914062 -23.28125 2.71875 -23.28125 C 2.519531 -23.257812 2.320312 -23.234375 2.125 -23.203125 C 1.789062 -23.179688 1.457031 -23.171875 1.125 -23.171875 C 0.800781 -23.171875 0.5 -23.253906 0.21875 -23.421875 C 0.132812 -23.441406 0.0703125 -23.488281 0.03125 -23.5625 C -0.0078125 -23.632812 -0.03125 -23.710938 -0.03125 -23.796875 C -0.0078125 -23.847656 0.0234375 -23.910156 0.078125 -23.984375 C 0.140625 -24.054688 0.21875 -24.101562 0.3125 -24.125 C 0.59375 -24.238281 0.882812 -24.320312 1.1875 -24.375 C 1.988281 -24.414062 2.78125 -24.445312 3.5625 -24.46875 C 3.875 -24.46875 4.144531 -24.46875 4.375 -24.46875 C 4.882812 -24.46875 5.265625 -24.488281 5.515625 -24.53125 C 5.765625 -24.570312 5.96875 -24.707031 6.125 -24.9375 C 6.28125 -25.164062 6.457031 -25.519531 6.65625 -26 C 6.78125 -26.25 6.925781 -26.53125 7.09375 -26.84375 C 7.507812 -27.738281 7.929688 -28.65625 8.359375 -29.59375 C 8.546875 -30.019531 8.742188 -30.429688 8.953125 -30.828125 C 9.117188 -31.222656 9.382812 -31.53125 9.75 -31.75 C 10.09375 -31.914062 10.394531 -31.90625 10.65625 -31.71875 C 10.726562 -31.664062 10.785156 -31.582031 10.828125 -31.46875 C 10.878906 -31.351562 10.90625 -31.25 10.90625 -31.15625 C 10.90625 -30.65625 10.773438 -30.160156 10.515625 -29.671875 C 10.460938 -29.566406 10.40625 -29.445312 10.34375 -29.3125 C 10.175781 -28.84375 9.992188 -28.375 9.796875 -27.90625 C 9.429688 -27.03125 9.082031 -26.132812 8.75 -25.21875 C 8.65625 -25.050781 8.648438 -24.90625 8.734375 -24.78125 C 8.816406 -24.65625 8.941406 -24.59375 9.109375 -24.59375 C 10.015625 -24.5625 10.90625 -24.546875 11.78125 -24.546875 C 12.226562 -24.546875 12.679688 -24.546875 13.140625 -24.546875 C 14.546875 -24.523438 15.109375 -24.328125 14.828125 -23.953125 C 14.628906 -23.734375 14.414062 -23.609375 14.1875 -23.578125 C 13.96875 -23.546875 13.742188 -23.550781 13.515625 -23.59375 C 13.378906 -23.59375 13.238281 -23.59375 13.09375 -23.59375 C 11.65625 -23.5 10.226562 -23.441406 8.8125 -23.421875 C 8.164062 -23.421875 7.734375 -23.125 7.515625 -22.53125 C 7.273438 -21.96875 7.050781 -21.398438 6.84375 -20.828125 C 6.519531 -20.085938 6.21875 -19.363281 5.9375 -18.65625 C 5.644531 -17.988281 5.359375 -17.316406 5.078125 -16.640625 C 4.347656 -14.921875 3.644531 -13.191406 2.96875 -11.453125 C 2.539062 -10.328125 2.207031 -9.171875 1.96875 -7.984375 C 1.425781 -5.847656 2.253906 -5.03125 4.453125 -5.53125 C 6.609375 -6.039062 8.867188 -7.59375 11.234375 -10.1875 C 12.253906 -10.84375 12.519531 -10.546875 12.03125 -9.296875 Z M 12.03125 -9.296875 "/></g></g></g><g fill="#ffffff" fill-opacity="1"><g transform="translate(206.631828, 223.019121)"><g/></g></g><g fill="#ffffff" fill-opacity="1"><g transform="translate(227.103739, 223.019121)"><g><path d="M 99.484375 -55.578125 C 99.816406 -55.296875 100.113281 -54.976562 100.375 -54.625 C 100.644531 -54.269531 100.820312 -53.847656 100.90625 -53.359375 C 101 -52.816406 100.804688 -52.40625 100.328125 -52.125 C 100.046875 -51.988281 99.769531 -51.96875 99.5 -52.0625 C 99.226562 -52.164062 99.035156 -52.375 98.921875 -52.6875 C 98.609375 -53.53125 98.140625 -54.195312 97.515625 -54.6875 C 96.898438 -55.1875 96.226562 -55.625 95.5 -56 C 93.875 -56.84375 92.203125 -57.53125 90.484375 -58.0625 C 88.765625 -58.601562 87.03125 -59.070312 85.28125 -59.46875 C 82.375 -60.082031 78.492188 -60.484375 73.640625 -60.671875 C 68.796875 -60.859375 63.398438 -60.785156 57.453125 -60.453125 C 51.515625 -60.128906 45.429688 -59.492188 39.203125 -58.546875 C 32.972656 -57.609375 27.007812 -56.3125 21.3125 -54.65625 C 15.625 -53.007812 10.625 -50.957031 6.3125 -48.5 C 2.007812 -46.039062 -1.195312 -43.140625 -3.3125 -39.796875 C -5.082031 -36.898438 -5.4375 -33.84375 -4.375 -30.625 C -3.601562 -28.414062 -2.5 -26.40625 -1.0625 -24.59375 C 1.082031 -21.882812 3.457031 -19.398438 6.0625 -17.140625 C 8.257812 -15.140625 10.472656 -13.132812 12.703125 -11.125 C 14.878906 -9.195312 17.054688 -7.25 19.234375 -5.28125 C 21.660156 -3.039062 24.050781 -0.78125 26.40625 1.5 C 26.625 1.71875 26.847656 1.929688 27.078125 2.140625 C 28.347656 3.316406 29.460938 4.625 30.421875 6.0625 C 31.410156 7.707031 31.597656 8.984375 30.984375 9.890625 C 30.378906 10.796875 29.222656 11.40625 27.515625 11.71875 C 25.804688 12.039062 23.820312 12.140625 21.5625 12.015625 C 19.300781 11.898438 17.023438 11.617188 14.734375 11.171875 C 12.441406 10.734375 10.40625 10.207031 8.625 9.59375 C 6.851562 8.976562 5.601562 8.34375 4.875 7.6875 C 3.40625 6.320312 3.304688 4.882812 4.578125 3.375 C 5.953125 1.820312 7.628906 0.691406 9.609375 -0.015625 C 12.472656 -1.117188 15.367188 -1.207031 18.296875 -0.28125 C 18.859375 -0.0820312 19.394531 0.179688 19.90625 0.515625 C 19.957031 0.546875 20.003906 0.578125 20.046875 0.609375 C 20.191406 0.691406 20.285156 0.804688 20.328125 0.953125 C 20.378906 1.109375 20.359375 1.28125 20.265625 1.46875 C 20.023438 1.75 19.738281 1.832031 19.40625 1.71875 C 19.082031 1.601562 18.78125 1.460938 18.5 1.296875 C 16.476562 0.273438 14.394531 0.0625 12.25 0.65625 C 10.101562 1.25 8.289062 2.414062 6.8125 4.15625 C 6.175781 5.007812 6.144531 5.753906 6.71875 6.390625 C 7.300781 7.023438 8.1875 7.5625 9.375 8 C 10.5625 8.445312 11.753906 8.796875 12.953125 9.046875 C 14.148438 9.296875 15.046875 9.460938 15.640625 9.546875 C 15.753906 9.546875 15.835938 9.5625 15.890625 9.59375 C 16.003906 9.59375 16.144531 9.601562 16.3125 9.625 C 17.070312 9.789062 18.109375 9.96875 19.421875 10.15625 C 20.734375 10.34375 22.085938 10.472656 23.484375 10.546875 C 24.890625 10.617188 26.09375 10.523438 27.09375 10.265625 C 28.09375 10.003906 28.65625 9.507812 28.78125 8.78125 C 28.914062 8.050781 28.359375 6.96875 27.109375 5.53125 C 25.785156 4 24.390625 2.515625 22.921875 1.078125 C 19.242188 -2.472656 15.472656 -5.921875 11.609375 -9.265625 C 10.222656 -10.503906 8.835938 -11.75 7.453125 -13 C 5.140625 -15.082031 2.867188 -17.210938 0.640625 -19.390625 C -1.429688 -21.390625 -3.253906 -23.59375 -4.828125 -26 C -5.960938 -27.738281 -6.753906 -29.617188 -7.203125 -31.640625 C -7.878906 -34.941406 -7.269531 -37.988281 -5.375 -40.78125 C -3.289062 -43.914062 -0.273438 -46.6875 3.671875 -49.09375 C 7.628906 -51.507812 12.210938 -53.570312 17.421875 -55.28125 C 22.640625 -56.988281 28.191406 -58.375 34.078125 -59.4375 C 39.972656 -60.5 45.925781 -61.25 51.9375 -61.6875 C 57.957031 -62.132812 63.726562 -62.285156 69.25 -62.140625 C 74.769531 -61.992188 79.765625 -61.570312 84.234375 -60.875 C 88.710938 -60.1875 92.382812 -59.234375 95.25 -58.015625 C 96.757812 -57.429688 98.171875 -56.617188 99.484375 -55.578125 Z M 99.484375 -55.578125 "/></g></g></g><g fill="#ffffff" fill-opacity="1"><g transform="translate(261.400513, 223.019121)"><g><path d="M 3.0625 -4.5625 L 3 -4.5625 C 1.144531 -4.59375 -0.078125 -5.007812 -0.671875 -5.8125 C -1.265625 -6.613281 -1.238281 -7.679688 -0.59375 -9.015625 C -0.0507812 -10.023438 0.625 -10.910156 1.4375 -11.671875 C 1.726562 -11.921875 2.019531 -12.125 2.3125 -12.28125 C 2.601562 -12.4375 2.9375 -12.515625 3.3125 -12.515625 C 3.53125 -12.554688 3.78125 -12.519531 4.0625 -12.40625 C 4.15625 -12.375 4.242188 -12.34375 4.328125 -12.3125 C 4.546875 -12.34375 4.757812 -12.410156 4.96875 -12.515625 C 5.019531 -12.554688 5.09375 -12.585938 5.1875 -12.609375 C 5.601562 -12.773438 6.050781 -12.847656 6.53125 -12.828125 C 6.71875 -12.828125 6.914062 -12.828125 7.125 -12.828125 C 7.882812 -12.710938 8.457031 -12.394531 8.84375 -11.875 C 9.226562 -11.351562 9.363281 -10.71875 9.25 -9.96875 C 9.175781 -9.519531 9.03125 -9.097656 8.8125 -8.703125 C 7.34375 -6.054688 5.460938 -4.675781 3.171875 -4.5625 Z M 6.109375 -11.453125 C 5.085938 -11.492188 4.179688 -11.203125 3.390625 -10.578125 C 2.609375 -9.953125 2.023438 -9.234375 1.640625 -8.421875 C 1.253906 -7.617188 1.144531 -6.957031 1.3125 -6.4375 C 1.488281 -5.914062 2.023438 -5.773438 2.921875 -6.015625 C 3.941406 -6.316406 4.835938 -6.890625 5.609375 -7.734375 C 6.390625 -8.585938 6.863281 -9.394531 7.03125 -10.15625 C 7.207031 -10.914062 6.898438 -11.347656 6.109375 -11.453125 Z M 6.109375 -11.453125 "/></g></g></g><g fill="#ffffff" fill-opacity="1"><g transform="translate(277.540125, 223.019121)"><g><path d="M 15.25 -9.609375 C 15.457031 -9.347656 15.203125 -8.878906 14.484375 -8.203125 C 13.765625 -7.523438 13 -6.953125 12.1875 -6.484375 C 11.375 -6.023438 10.4375 -5.566406 9.375 -5.109375 C 8.664062 -4.796875 7.914062 -4.691406 7.125 -4.796875 C 6.332031 -4.898438 5.9375 -5.378906 5.9375 -6.234375 C 5.9375 -7.097656 6.132812 -7.953125 6.53125 -8.796875 C 6.925781 -9.671875 7.007812 -10.117188 6.78125 -10.140625 C 6.5625 -10.171875 6.097656 -9.960938 5.390625 -9.515625 C 3.554688 -8.304688 1.847656 -6.925781 0.265625 -5.375 C -0.148438 -4.863281 -0.6875 -4.582031 -1.34375 -4.53125 C -1.675781 -4.53125 -1.9375 -4.632812 -2.125 -4.84375 C -2.3125 -5.050781 -2.332031 -5.28125 -2.1875 -5.53125 C -1.0625 -7.625 0.078125 -9.691406 1.234375 -11.734375 C 1.492188 -12.148438 1.878906 -12.410156 2.390625 -12.515625 C 2.609375 -12.554688 2.8125 -12.488281 3 -12.3125 C 3.1875 -12.132812 3.28125 -11.941406 3.28125 -11.734375 C 3.25 -11.523438 3.160156 -11.28125 3.015625 -11 C 2.953125 -10.832031 2.890625 -10.671875 2.828125 -10.515625 C 2.773438 -10.359375 2.757812 -10.226562 2.78125 -10.125 C 2.800781 -10.019531 2.878906 -9.988281 3.015625 -10.03125 C 3.210938 -10.132812 3.40625 -10.242188 3.59375 -10.359375 C 4.082031 -10.640625 4.550781 -10.910156 5 -11.171875 C 5.40625 -11.398438 5.820312 -11.601562 6.25 -11.78125 C 6.6875 -11.957031 7.144531 -12.082031 7.625 -12.15625 C 8.394531 -12.207031 8.941406 -12.03125 9.265625 -11.625 C 9.585938 -11.226562 9.625 -10.675781 9.375 -9.96875 C 9.125 -9.332031 8.851562 -8.695312 8.5625 -8.0625 C 8.21875 -7.476562 8.160156 -7.03125 8.390625 -6.71875 C 8.628906 -6.414062 9.703125 -6.769531 11.609375 -7.78125 L 13.0625 -8.625 C 14.414062 -9.5 15.144531 -9.828125 15.25 -9.609375 Z M 15.25 -9.609375 "/></g></g></g><g fill="#ffffff" fill-opacity="1"><g transform="translate(297.569184, 223.019121)"><g><path d="M 7.65625 -8.109375 C 6.96875 -7.296875 6.15625 -6.550781 5.21875 -5.875 C 4.28125 -5.195312 3.21875 -4.738281 2.03125 -4.5 C 0.851562 -4.257812 -0.0546875 -4.34375 -0.703125 -4.75 C -1.359375 -5.164062 -1.488281 -6.078125 -1.09375 -7.484375 C -0.582031 -8.953125 0.117188 -10.347656 1.015625 -11.671875 C 1.222656 -11.953125 1.519531 -12.148438 1.90625 -12.265625 C 2.1875 -12.328125 2.429688 -12.273438 2.640625 -12.109375 C 2.859375 -11.953125 2.941406 -11.753906 2.890625 -11.515625 C 2.691406 -11.054688 2.476562 -10.59375 2.25 -10.125 C 2.019531 -9.664062 1.867188 -9.363281 1.796875 -9.21875 C 1.335938 -8.394531 1.019531 -7.535156 0.84375 -6.640625 C 0.84375 -6.128906 1.53125 -6.097656 2.90625 -6.546875 C 4.28125 -6.992188 5.613281 -7.816406 6.90625 -9.015625 C 8.207031 -10.222656 8.828125 -10.578125 8.765625 -10.078125 C 8.710938 -9.585938 8.34375 -8.929688 7.65625 -8.109375 Z M 4.296875 -14.5625 C 4.234375 -14.507812 4.097656 -14.445312 3.890625 -14.375 C 3.691406 -14.300781 3.476562 -14.25 3.25 -14.21875 C 3.03125 -14.1875 2.859375 -14.222656 2.734375 -14.328125 C 2.609375 -14.429688 2.601562 -14.632812 2.71875 -14.9375 C 2.914062 -15.476562 3.128906 -15.953125 3.359375 -16.359375 C 3.585938 -16.765625 3.878906 -17.210938 4.234375 -17.703125 C 4.460938 -17.921875 4.710938 -18.035156 4.984375 -18.046875 C 5.253906 -18.066406 5.476562 -17.992188 5.65625 -17.828125 C 5.84375 -17.671875 5.894531 -17.453125 5.8125 -17.171875 C 5.53125 -16.160156 5.023438 -15.289062 4.296875 -14.5625 Z M 4.296875 -14.5625 "/></g></g></g><g mask="url(#adfe2689ee)"><g transform="matrix(1, 0, 0, 1, 46, 249)"><g clip-path="url(#7171c7a9da)"><g clip-path="url(#b10c187754)"><g fill="#ffffff" fill-opacity="1"><g transform="translate(0.765618, 18.876164)"><g><path d="M 10.871094 0.617188 C 15.910156 0.617188 19.171875 -1.40625 19.171875 -4.570312 C 19.144531 -7.039062 17.269531 -8.398438 12.921875 -9.117188 L 7.734375 -9.980469 C 4.496094 -10.476562 3.113281 -11.390625 3.113281 -13.070312 C 3.113281 -15.441406 5.535156 -16.972656 9.289062 -16.972656 C 12.597656 -16.972656 15.414062 -15.539062 16.550781 -13.339844 L 17.417969 -13.859375 C 16.183594 -16.328125 12.996094 -17.9375 9.265625 -17.9375 C 4.941406 -17.9375 2.101562 -16.035156 2.101562 -13.019531 C 2.101562 -10.796875 3.730469 -9.609375 7.535156 -8.992188 L 12.773438 -8.128906 C 16.527344 -7.511719 18.132812 -6.375 18.132812 -4.472656 C 18.132812 -1.976562 15.292969 -0.347656 10.894531 -0.347656 C 5.90625 -0.347656 2.148438 -2.570312 1.382812 -5.980469 L 0.492188 -5.535156 C 1.457031 -1.804688 5.484375 0.617188 10.871094 0.617188 Z M 10.871094 0.617188 "/></g></g></g></g><g fill="#ffffff" fill-opacity="1"><g transform="translate(25.914366, 18.876164)"><g><path d="M 1.234375 0 L 2.25 0 L 2.25 -17.316406 L 1.234375 -17.316406 Z M 1.234375 0 "/></g></g></g><g fill="#ffffff" fill-opacity="1"><g transform="translate(34.882553, 18.876164)"><g><path d="M 1.234375 0 L 2.25 0 L 2.25 -16.28125 L 2.296875 -16.28125 L 12.007812 0 L 13.144531 0 L 22.902344 -16.28125 L 22.949219 -16.28125 L 22.949219 0 L 23.964844 0 L 23.964844 -17.316406 L 22.359375 -17.316406 L 12.597656 -1.0625 L 12.574219 -1.0625 L 2.839844 -17.316406 L 1.234375 -17.316406 Z M 1.234375 0 "/></g></g></g><g fill="#ffffff" fill-opacity="1"><g transform="translate(65.564808, 18.876164)"><g><path d="M 1.234375 0 L 2.25 0 L 2.25 -7.1875 L 13.488281 -7.1875 C 17.070312 -7.1875 19.195312 -9.238281 19.195312 -12.253906 C 19.195312 -15.242188 17.070312 -17.316406 13.488281 -17.316406 L 1.234375 -17.316406 Z M 2.25 -8.152344 L 2.25 -16.355469 L 13.441406 -16.355469 C 16.453125 -16.355469 18.183594 -14.675781 18.183594 -12.253906 C 18.183594 -9.832031 16.453125 -8.152344 13.441406 -8.152344 Z M 2.25 -8.152344 "/></g></g></g><g fill="#ffffff" fill-opacity="1"><g transform="translate(90.614733, 18.876164)"><g><path d="M 1.234375 0 L 14.402344 0 L 14.402344 -0.964844 L 2.25 -0.964844 L 2.25 -17.316406 L 1.234375 -17.316406 Z M 1.234375 0 "/></g></g></g><g fill="#ffffff" fill-opacity="1"><g transform="translate(110.625219, 18.876164)"><g><path d="M 1.234375 0 L 18.109375 0 L 18.109375 -0.964844 L 2.25 -0.964844 L 2.25 -8.523438 L 16.875 -8.523438 L 16.875 -9.488281 L 2.25 -9.488281 L 2.25 -16.355469 L 17.863281 -16.355469 L 17.863281 -17.316406 L 1.234375 -17.316406 Z M 1.234375 0 "/></g></g></g><g fill="#ffffff" fill-opacity="1"><g transform="translate(134.711723, 18.876164)"><g/></g></g><g clip-path="url(#ab3645219c)"><g fill="#ffffff" fill-opacity="1"><g transform="translate(149.633364, 18.876164)"><g><path d="M 12.203125 0.617188 C 17.539062 0.617188 21.816406 -2.273438 23.222656 -6.84375 L 22.285156 -7.1875 C 21.023438 -3.015625 17.097656 -0.347656 12.203125 -0.347656 C 5.980469 -0.347656 2 -3.582031 2 -8.648438 C 2 -13.734375 5.65625 -16.972656 11.4375 -16.972656 C 15.636719 -16.972656 19.097656 -14.824219 20.332031 -11.464844 L 21.246094 -11.832031 C 19.863281 -15.5625 16.035156 -17.9375 11.414062 -17.9375 C 5.039062 -17.9375 0.988281 -14.328125 0.988281 -8.648438 C 0.988281 -2.988281 5.335938 0.617188 12.203125 0.617188 Z M 12.203125 0.617188 "/></g></g></g></g><g clip-path="url(#70d316e0c1)"><g fill="#ffffff" fill-opacity="1"><g transform="translate(179.27808, 18.876164)"><g><path d="M 12.648438 0.617188 C 19.664062 0.617188 24.308594 -3.089844 24.308594 -8.648438 C 24.308594 -14.230469 19.664062 -17.9375 12.648438 -17.9375 C 5.632812 -17.9375 0.988281 -14.230469 0.988281 -8.648438 C 0.988281 -3.089844 5.632812 0.617188 12.648438 0.617188 Z M 12.648438 -0.347656 C 6.25 -0.347656 2 -3.679688 2 -8.648438 C 2 -13.636719 6.25 -16.972656 12.648438 -16.972656 C 19.046875 -16.972656 23.296875 -13.636719 23.296875 -8.648438 C 23.296875 -3.679688 19.046875 -0.347656 12.648438 -0.347656 Z M 12.648438 -0.347656 "/></g></g></g></g><g fill="#ffffff" fill-opacity="1"><g transform="translate(210.059137, 18.876164)"><g><path d="M 1.234375 0 L 10.625 0 C 17.144531 0 20.753906 -3.089844 20.753906 -8.648438 C 20.753906 -14.230469 17.144531 -17.316406 10.625 -17.316406 L 1.234375 -17.316406 Z M 2.25 -0.964844 L 2.25 -16.355469 L 10.625 -16.355469 C 16.476562 -16.355469 19.738281 -13.613281 19.738281 -8.648438 C 19.738281 -3.707031 16.476562 -0.964844 10.625 -0.964844 Z M 2.25 -0.964844 "/></g></g></g><g fill="#ffffff" fill-opacity="1"><g transform="translate(237.282959, 18.876164)"><g><path d="M 1.234375 0 L 18.109375 0 L 18.109375 -0.964844 L 2.25 -0.964844 L 2.25 -8.523438 L 16.875 -8.523438 L 16.875 -9.488281 L 2.25 -9.488281 L 2.25 -16.355469 L 17.863281 -16.355469 L 17.863281 -17.316406 L 1.234375 -17.316406 Z M 1.234375 0 "/></g></g></g><g fill="#ffffff" fill-opacity="1"><g transform="translate(261.369474, 18.876164)"><g><path d="M 18.652344 0.492188 C 19.664062 0.492188 20.382812 -0.0234375 20.851562 -0.742188 L 20.183594 -1.40625 C 19.789062 -0.742188 19.34375 -0.445312 18.75 -0.445312 C 17.714844 -0.445312 17.269531 -1.234375 16.921875 -2.25 L 16.082031 -4.621094 C 15.613281 -6.003906 14.996094 -7.140625 13.910156 -7.734375 L 13.910156 -7.757812 C 17.242188 -7.929688 19.46875 -9.808594 19.46875 -12.527344 C 19.46875 -15.34375 16.972656 -17.316406 13.441406 -17.316406 L 1.234375 -17.316406 L 1.234375 0 L 2.25 0 L 2.25 -7.558594 L 11.660156 -7.558594 C 13.5625 -7.558594 14.425781 -6.273438 14.996094 -4.570312 L 15.910156 -2.101562 C 16.429688 -0.59375 17.144531 0.492188 18.652344 0.492188 Z M 2.222656 -8.523438 L 2.222656 -16.355469 L 13.390625 -16.355469 C 16.328125 -16.355469 18.40625 -14.722656 18.40625 -12.425781 C 18.40625 -10.179688 16.328125 -8.523438 13.390625 -8.523438 Z M 2.222656 -8.523438 "/></g></g></g></g></g></g></svg>